<svg width="26" height="29" viewBox="0 0 26 29" fill="none" xmlns="http://www.w3.org/2000/svg">
<g clip-path="url(#clip0_6_166)">
<path d="M17.3333 4.83341H19.4999C20.0746 4.83341 20.6257 5.08803 21.032 5.54124C21.4383 5.99445 21.6666 6.60914 21.6666 7.25008V24.1667C21.6666 24.8077 21.4383 25.4224 21.032 25.8756C20.6257 26.3288 20.0746 26.5834 19.4999 26.5834H6.49992C5.92528 26.5834 5.37418 26.3288 4.96785 25.8756C4.56152 25.4224 4.33325 24.8077 4.33325 24.1667V7.25008C4.33325 6.60914 4.56152 5.99445 4.96785 5.54124C5.37418 5.08803 5.92528 4.83341 6.49992 4.83341H8.66658M9.74992 2.41675H16.2499C16.8482 2.41675 17.3333 2.95774 17.3333 3.62508V6.04175C17.3333 6.70909 16.8482 7.25008 16.2499 7.25008H9.74992C9.15161 7.25008 8.66658 6.70909 8.66658 6.04175V3.62508C8.66658 2.95774 9.15161 2.41675 9.74992 2.41675Z" stroke="#F3F3F3" stroke-width="4" stroke-linecap="round" stroke-linejoin="round"/>
</g>
<defs>
<clipPath id="clip0_6_166">
<rect width="26" height="29" fill="white"/>
</clipPath>
</defs>
</svg>
