<svg width="38" height="38" viewBox="0 0 38 38" fill="none" xmlns="http://www.w3.org/2000/svg">
<path d="M22.1666 3.16666H9.49992C8.66007 3.16666 7.85461 3.50029 7.26075 4.09415C6.66688 4.68802 6.33325 5.49347 6.33325 6.33332V31.6667C6.33325 32.5065 6.66688 33.312 7.26075 33.9058C7.85461 34.4997 8.66007 34.8333 9.49992 34.8333H28.4999C29.3398 34.8333 30.1452 34.4997 30.7391 33.9058C31.333 33.312 31.6666 32.5065 31.6666 31.6667V12.6667M22.1666 3.16666L31.6666 12.6667M22.1666 3.16666V12.6667H31.6666M25.3333 20.5833H12.6666M25.3333 26.9167H12.6666M15.8333 14.25H12.6666" stroke="#F3F3F3" stroke-width="4" stroke-linecap="round" stroke-linejoin="round"/>
</svg>
