<svg width="30" height="31" viewBox="0 0 30 31" fill="none" xmlns="http://www.w3.org/2000/svg">
<path d="M14.6388 28.4166C12.9716 28.4166 11.3959 28.0776 9.91163 27.3995C8.42741 26.7213 7.13126 25.7956 6.02318 24.6224C4.91509 23.4491 4.04083 22.0767 3.40037 20.5052C2.75992 18.9337 2.4397 17.2653 2.4397 15.5C2.4397 13.7132 2.75992 12.0394 3.40037 10.4786C4.04083 8.91786 4.91509 7.55085 6.02318 6.37758C7.13126 5.20432 8.42741 4.27863 9.91163 3.6005C11.3959 2.92238 12.9716 2.58331 14.6388 2.58331C16.3263 2.58331 17.9071 2.92238 19.3812 3.6005C20.8552 4.27863 22.1463 5.20432 23.2544 6.37758C24.3624 7.55085 25.2367 8.91786 25.8772 10.4786C26.5176 12.0394 26.8378 13.7132 26.8378 15.5C26.8378 17.2653 26.5176 18.9337 25.8772 20.5052C25.2367 22.0767 24.3624 23.4491 23.2544 24.6224C22.1463 25.7956 20.8552 26.7213 19.3812 27.3995C17.9071 28.0776 16.3263 28.4166 14.6388 28.4166ZM14.6388 25.7687C15.1674 24.9937 15.6249 24.1864 16.0112 23.3469C16.3975 22.5073 16.7126 21.6139 16.9566 20.6666H12.3209C12.5649 21.6139 12.8801 22.5073 13.2664 23.3469C13.6527 24.1864 14.1101 24.9937 14.6388 25.7687ZM11.467 25.2521C11.101 24.5416 10.7808 23.8043 10.5063 23.0401C10.2319 22.2758 10.0031 21.4847 9.82014 20.6666H6.22141C6.81103 21.743 7.54806 22.6795 8.43249 23.476C9.31693 24.2725 10.3284 24.8646 11.467 25.2521ZM17.8105 25.2521C18.9491 24.8646 19.9606 24.2725 20.8451 23.476C21.7295 22.6795 22.4665 21.743 23.0561 20.6666H19.4574C19.2744 21.4847 19.0457 22.2758 18.7712 23.0401C18.4967 23.8043 18.1765 24.5416 17.8105 25.2521ZM5.18449 18.0833H9.33217C9.27118 17.6528 9.22543 17.2276 9.19493 16.8078C9.16444 16.388 9.14919 15.9521 9.14919 15.5C9.14919 15.0479 9.16444 14.612 9.19493 14.1922C9.22543 13.7724 9.27118 13.3472 9.33217 12.9166H5.18449C5.08283 13.3472 5.00659 13.7724 4.95576 14.1922C4.90493 14.612 4.87951 15.0479 4.87951 15.5C4.87951 15.9521 4.90493 16.388 4.95576 16.8078C5.00659 17.2276 5.08283 17.6528 5.18449 18.0833ZM11.772 18.0833H17.5056C17.5665 17.6528 17.6123 17.2276 17.6428 16.8078C17.6733 16.388 17.6885 15.9521 17.6885 15.5C17.6885 15.0479 17.6733 14.612 17.6428 14.1922C17.6123 13.7724 17.5665 13.3472 17.5056 12.9166H11.772C11.711 13.3472 11.6652 13.7724 11.6347 14.1922C11.6043 14.612 11.589 15.0479 11.589 15.5C11.589 15.9521 11.6043 16.388 11.6347 16.8078C11.6652 17.2276 11.711 17.6528 11.772 18.0833ZM19.9454 18.0833H24.0931C24.1947 17.6528 24.271 17.2276 24.3218 16.8078C24.3726 16.388 24.398 15.9521 24.398 15.5C24.398 15.0479 24.3726 14.612 24.3218 14.1922C24.271 13.7724 24.1947 13.3472 24.0931 12.9166H19.9454C20.0064 13.3472 20.0521 13.7724 20.0826 14.1922C20.1131 14.612 20.1284 15.0479 20.1284 15.5C20.1284 15.9521 20.1131 16.388 20.0826 16.8078C20.0521 17.2276 20.0064 17.6528 19.9454 18.0833ZM19.4574 10.3333H23.0561C22.4665 9.25692 21.7295 8.32047 20.8451 7.52394C19.9606 6.72741 18.9491 6.1354 17.8105 5.7479C18.1765 6.45831 18.4967 7.19564 18.7712 7.95988C19.0457 8.72411 19.2744 9.51526 19.4574 10.3333ZM12.3209 10.3333H16.9566C16.7126 9.38609 16.3975 8.49269 16.0112 7.6531C15.6249 6.81352 15.1674 6.00623 14.6388 5.23123C14.1101 6.00623 13.6527 6.81352 13.2664 7.6531C12.8801 8.49269 12.5649 9.38609 12.3209 10.3333ZM6.22141 10.3333H9.82014C10.0031 9.51526 10.2319 8.72411 10.5063 7.95988C10.7808 7.19564 11.101 6.45831 11.467 5.7479C10.3284 6.1354 9.31693 6.72741 8.43249 7.52394C7.54806 8.32047 6.81103 9.25692 6.22141 10.3333Z" fill="#E7E0EC"/>
</svg>
