<svg width="23" height="29" viewBox="0 0 23 29" fill="none" xmlns="http://www.w3.org/2000/svg">
<path d="M22.6239 9.89991C22.6147 9.87314 22.6054 9.84509 22.5961 9.81832C22.5485 9.72781 22.5022 9.6373 22.4267 9.56464L12.7433 0.253681C12.6678 0.181017 12.5831 0.126204 12.4892 0.090508C12.4614 0.0815847 12.4322 0.0726611 12.4045 0.0637375C12.329 0.036967 12.2628 0.0280419 12.1874 0.0178469C12.1596 0.00892327 12.1398 0 12.1212 0H2.66406C1.19507 0 0 1.15112 0 2.55721V26.4441C0 27.8578 1.19504 29 2.65346 29H20.0168C21.4845 29 22.6703 27.8489 22.6703 26.4441L22.6716 10.1715C22.6716 10.1537 22.6623 10.1358 22.6623 10.1167C22.6623 10.044 22.6425 9.9713 22.6239 9.89991ZM19.6502 9.31862H13.8907C13.401 9.31862 13.0066 8.93745 13.0066 8.46706V2.91037L16.3284 6.11009L19.6502 9.31862ZM20.0168 27.3045H2.66395C2.17428 27.3045 1.77989 26.9233 1.77989 26.4529L1.77857 2.55694C1.77857 2.08527 2.17428 1.70538 2.66262 1.70538H11.2359V8.45909C11.2359 9.87282 12.4309 11.015 13.8893 11.015H20.9007V26.4437C20.9113 26.923 20.5064 27.3041 20.0167 27.3041L20.0168 27.3045Z" fill="#C3C6D6"/>
</svg>
